<svg width="64" height="64" xmlns="http://www.w3.org/2000/svg">

 <g>
  <title>background</title>
  <rect fill="none" id="canvas_background" height="402" width="582" y="-1" x="-1"/>
 </g>
 <g>
  <title>Layer 1</title>
  <circle id="svg_3" r="30" fill="#c1cc20" cy="32" cx="32"/>
  <ellipse id="svg_5" transform="matrix(0.9529,-0.3032,0.3032,0.9529,-11.5357,13.2546) " ry="6.5" rx="10.7" fill="#49200C" cy="43.8" cx="36.9"/>
  <path id="svg_7" fill="#8E5E46" d="m47.1,40.5c0,0 -16.5,1.7 -20.4,6.5c0,0 3.5,-1.3 8.1,-1.4c4.5,-0.1 12,-2 12.3,-5.1z"/>
  <ellipse id="svg_10" transform="matrix(0.2167,-0.9762,0.9762,0.2167,-5.5252,42.0579) " ry="10.7" rx="6.5" fill="#49200C" cy="24.5" cx="23.4"/>
  <path id="svg_12" fill="#8E5E46" d="m13,22.2c0,0 15.2,6.8 20.9,4.6c0,0 -3.7,-0.6 -7.7,-2.8c-4,-2.2 -11.4,-4.3 -13.2,-1.8z"/>
  <path id="svg_14" fill="#E8E5E6" d="m41.5,10.9c0,0 -8.9,8.8 0.3,18.3c0.1,0 9.4,-9.6 -0.3,-18.3z"/>
  <path id="svg_16" fill="#8E5E46" d="m58.7,31.1c0,0 -8.3,-9.4 -18.3,-0.7c0,0 9,9.9 18.3,0.7z"/>
  <path id="svg_18" fill="#8E5E46" d="m60.4,8.2c0,0 -12.5,0.9 -11.6,14.1c0,0.1 13.4,-1.1 11.6,-14.1z"/>
  <path id="svg_20" fill="#54321F" d="m17.2,41.7c-0.2,0 -0.5,-0.2 -0.5,-0.4c0,-0.3 0.1,-0.5 0.4,-0.6c21.2,-3.3 36.3,-24.6 36.4,-24.8c0.2,-0.2 0.5,-0.3 0.7,-0.1c0.2,0.2 0.3,0.5 0.1,0.7c0,0.2 -15.3,21.8 -37.1,25.2c0.1,0 0.1,0 0,0z"/>
  <ellipse id="svg_22" transform="matrix(0.4182,-0.9083,0.9083,0.4182,-29.4856,40.9815) " ry="8.4" rx="5.1" fill="#49200C" cy="43.5" cx="17.3"/>
  <path id="svg_24" fill="#8E5E46" d="m24.8,47c0,0 -10.5,-7.7 -15.2,-7c0,0 2.7,1.1 5.4,3.4c2.7,2.3 8.1,5.2 9.8,3.6z"/>
  <path id="svg_26" fill="#54321F" d="m54,31.7c0,0 -0.1,0 0,0l-12.2,-2c-0.2,0 -0.4,-0.3 -0.4,-0.5l0.1,-13c0,-0.3 0.2,-0.5 0.5,-0.5c0,0 0,0 0,0c0.3,0 0.5,0.2 0.5,0.5l-0.1,12.6l11.7,2c0.3,0 0.5,0.3 0.4,0.6c0,0.1 -0.3,0.3 -0.5,0.3z"/>
  <text xml:space="preserve" text-anchor="start" font-family="'Shadows Into Light', serif" font-size="10" id="svg_27" y="58.515197" x="8.430935" stroke-opacity="null" stroke-width="0" stroke="null" fill="#000000">Coffea Shop</text>
 </g>
</svg>